<?xml version="1.0" encoding="UTF-8"?>
<svg width="304px" height="111px" viewBox="0 0 304 111" version="1.1" xmlns="http://www.w3.org/2000/svg" xmlns:xlink="http://www.w3.org/1999/xlink">
    <!-- Generator: Sketch 50.2 (55047) - http://www.bohemiancoding.com/sketch -->
    <g id="Page-1" stroke="none" stroke-width="1" fill="none" fill-rule="evenodd">
        <g id="Local_master_logo" fill="#282828">
            <path d="M294,109.264 L304,109.264 L304,0.264 L294,0.264 L294,109.264 Z M268,75.264 L268,80.297 C268,83.269 267.52,86.097 266.562,88.78 C265.603,91.465 264.212,93.837 262.393,95.897 C260.571,97.96 258.317,99.588 255.635,100.786 C252.95,101.985 249.884,102.583 246.433,102.583 C244.514,102.583 242.622,102.367 240.753,101.936 C238.884,101.505 237.181,100.786 235.649,99.779 C234.114,98.773 232.892,97.456 231.982,95.824 C231.07,94.196 230.616,92.183 230.616,89.785 C230.616,86.623 231.67,84.084 233.78,82.166 C235.887,80.249 238.596,78.787 241.903,77.78 C245.211,76.774 248.899,76.104 252.975,75.767 C257.048,75.433 261.099,75.264 265.125,75.264 L268,75.264 Z M268,67.581 C262,67.581 256.21,67.8 250.633,68.235 C245.054,68.671 240.108,69.639 235.797,71.141 C231.483,72.642 228.038,74.917 225.461,77.965 C222.881,81.014 221.594,85.153 221.594,90.38 C221.594,94.158 222.318,97.35 223.772,99.964 C225.224,102.579 227.053,104.709 229.258,106.355 C231.459,108.001 233.898,109.187 236.57,109.912 C239.241,110.636 241.843,111 244.375,111 C249.719,111 254.289,110.01 258.087,108.033 C261.884,106.057 265.28,102.801 268.282,98.264 L268.562,98.264 C268.562,100.098 268.655,101.979 268.844,103.909 C269.031,105.839 269.265,107.624 269.548,109.264 L278.126,109.264 C277.75,107.334 277.469,104.971 277.282,102.171 C277.093,99.374 277,96.671 277,94.067 L277,64.398 C277,60.249 276.344,56.631 275.031,53.542 C273.718,50.455 271.889,47.897 269.548,45.871 C267.203,43.845 264.485,42.325 261.39,41.312 C258.297,40.299 254.969,39.792 251.406,39.792 C245.781,39.792 240.741,40.71 236.289,42.542 C231.835,44.376 228.249,46.693 225.531,49.49 L230.874,56.002 C233.217,53.592 236.077,51.661 239.453,50.214 C242.828,48.766 246.484,48.042 250.422,48.042 C256.139,48.042 260.498,49.481 263.5,52.352 C266.5,55.226 268,59.585 268,65.426 L268,67.581 Z M207.45,51.595 C204.574,47.762 200.811,44.862 196.163,42.896 C191.512,40.932 186.936,39.948 182.432,39.948 C176.968,39.948 172.03,40.836 167.622,42.608 C163.212,44.383 159.449,46.85 156.335,50.013 C153.219,53.176 150.799,56.915 149.074,61.228 C147.348,65.542 146.486,70.239 146.486,75.319 C146.486,80.401 147.348,85.096 149.074,89.41 C150.799,93.723 153.219,97.462 156.335,100.625 C159.449,103.788 163.212,106.257 167.622,108.03 C172.03,109.803 176.968,110.69 182.432,110.69 C188.277,110.69 193.287,109.634 197.457,107.527 C201.627,105.419 205.149,102.591 208.025,99.043 L200.692,93.58 C198.774,96.168 196.329,98.277 193.359,99.906 C190.387,101.537 186.745,102.35 182.432,102.35 C178.5,102.35 174.955,101.656 171.792,100.266 C168.628,98.877 165.944,96.959 163.74,94.514 C161.533,92.07 159.833,89.219 158.635,85.959 C157.436,82.701 156.838,79.154 156.838,75.319 C156.838,71.486 157.436,67.914 158.635,64.607 C159.833,61.3 161.558,58.424 163.812,55.98 C166.063,53.536 168.772,51.619 171.935,50.229 C175.099,48.84 178.644,48.144 182.575,48.144 C186.217,48.144 189.596,48.984 192.712,50.66 C195.826,52.338 198.198,54.47 199.829,57.059 L207.45,51.595 Z M124.023,85.887 C122.824,89.194 121.123,92.07 118.919,94.514 C116.713,96.959 114.03,98.877 110.867,100.266 C107.704,101.656 104.157,102.35 100.227,102.35 C96.296,102.35 92.773,101.656 89.659,100.266 C86.543,98.877 83.883,96.959 81.679,94.514 C79.473,92.07 77.772,89.194 76.575,85.887 C75.375,82.58 74.777,79.057 74.777,75.319 C74.777,71.581 75.375,68.058 76.575,64.751 C77.772,61.444 79.473,58.568 81.679,56.124 C83.883,53.68 86.543,51.739 89.659,50.301 C92.773,48.863 96.296,48.144 100.227,48.144 C104.157,48.144 107.704,48.863 110.867,50.301 C114.03,51.739 116.713,53.68 118.919,56.124 C121.123,58.568 122.824,61.444 124.023,64.751 C125.221,68.058 125.821,71.581 125.821,75.319 C125.821,79.057 125.221,82.58 124.023,85.887 Z M133.513,61.228 C131.738,56.915 129.272,53.176 126.108,50.013 C122.945,46.85 119.157,44.383 114.749,42.608 C110.339,40.836 105.498,39.948 100.227,39.948 C95.051,39.948 90.257,40.836 85.849,42.608 C81.439,44.383 77.653,46.85 74.49,50.013 C71.327,53.176 68.858,56.915 67.085,61.228 C65.31,65.542 64.425,70.239 64.425,75.319 C64.425,80.401 65.31,85.096 67.085,89.41 C68.858,93.723 71.327,97.462 74.49,100.625 C77.653,103.788 81.439,106.257 85.849,108.03 C90.257,109.803 95.051,110.69 100.227,110.69 C105.498,110.69 110.339,109.803 114.749,108.03 C119.157,106.257 122.945,103.788 126.108,100.625 C129.272,97.462 131.738,93.723 133.513,89.41 C135.286,85.096 136.173,80.401 136.173,75.319 C136.173,70.239 135.286,65.542 133.513,61.228 Z M11,7.264 L0,7.264 L0,109.264 L58,109.264 L58,100.264 L11,100.264 L11,7.264 Z" id="Fill-1"></path>
        </g>
    </g>
</svg>
